<svg xmlns="http://www.w3.org/2000/svg" width="97" height="100" viewBox="0 0 97 100"><path d="M46.23 49.82H56.66V69.84Q52.64 72.87 47.36 74.49Q42.07 76.11 36.72 76.11Q29.03 76.11 22.9 72.83Q16.77 69.56 13.28 63.74Q9.8 57.93 9.8 50.6Q9.8 43.27 13.28 37.46Q16.77 31.64 22.97 28.37Q29.18 25.09 36.93 25.09Q43.41 25.09 48.7 27.27Q53.98 29.46 57.58 33.62L50.25 40.38Q44.96 34.81 37.49 34.81Q32.77 34.81 29.11 36.79Q25.44 38.76 23.4 42.35Q21.35 45.95 21.35 50.6Q21.35 55.18 23.4 58.77Q25.44 62.37 29.07 64.38Q32.7 66.38 37.35 66.38Q42.28 66.38 46.23 64.27Z" fill="#ffffff" fill-rule="nonzero"/></svg>
