<svg xmlns="http://www.w3.org/2000/svg" width="97" height="100" viewBox="0 0 97 100"><path d="M75.19 53.77V75.26H70.19V54.26Q70.19 48.48 67.41 45.45Q64.62 42.42 59.55 42.42Q53.77 42.42 50.46 45.98Q47.15 49.54 47.15 55.81V75.26H42.14V54.26Q42.14 48.48 39.36 45.45Q36.58 42.42 31.43 42.42Q25.72 42.42 22.37 45.98Q19.03 49.54 19.03 55.81V75.26H14.02V38.2H18.82V44.96Q20.79 41.58 24.31 39.75Q27.84 37.91 32.42 37.91Q37.07 37.91 40.49 39.89Q43.9 41.86 45.6 45.74Q47.64 42.07 51.48 39.99Q55.32 37.91 60.25 37.91Q67.23 37.91 71.21 41.93Q75.19 45.95 75.19 53.77Z" fill="#e8e6e3" fill-rule="nonzero"/></svg>
