<svg xmlns="http://www.w3.org/2000/svg" width="97" height="100" viewBox="0 0 97 100"><path d="M26.15 52.08Q24.24 50.46 23.01 49.72Q21.78 48.98 20.3 48.98Q17.83 48.98 16.38 50.78Q14.94 52.57 14.8 55.67H11.42Q11.56 50.53 13.92 47.78Q16.28 45.03 20.16 45.03Q22.55 45.03 24.31 46.05Q26.07 47.08 28.47 49.05Q30.3 50.67 31.57 51.44Q32.84 52.22 34.32 52.22Q36.79 52.22 38.23 50.39Q39.68 48.56 39.82 45.45H43.2Q43.06 50.6 40.7 53.35Q38.34 56.1 34.46 56.1Q32.06 56.1 30.3 55.07Q28.54 54.05 26.15 52.08Z" fill="#e8e6e3" fill-rule="nonzero"/></svg>
